# xmcd
#
# Track frame offsets:
#	150
#	20889
#	34889
#	49722
#	65837
#	82890
#	104429
#	119307
#	132622
#	145955
#	161024
#	171742
#	184684
#	197622
#	212724
#	229004
#	242221
#	256075
#
# Disc length: 3629 seconds
#
# Revision: 2
# Processed by: cddbd v1.5.2PL0 Copyright (c) Steve Scherf et al.
# Submitted via: EZCDAudioConverter 2.1.7.1
#
DISCID=0f0e2b12
DTITLE=V/A - Good God! Born Again Funk
DYEAR=2009
DGENRE=
TTITLE0=Pastor T.L. Barrett and The Youth For Christ Choir - Like A Ship
TTITLE1=Ada Richards - I'm Drunk And Real High (In The Spirit Of God)
TTITLE2=Gospel Comforters - Yes God Is Real
TTITLE3=Golden Echoes - Packing A Grip
TTITLE4=Lucy "Sister Soul" Rodgers - Pray A Little Longer
TTITLE5=Gospel Soul Revivals - If Jesus Came Today
TTITLE6=Brother Samuel Cheatham - Troubles Of The World
TTITLE7=Victory Travelers - I Know I've Been Changed
TTITLE8=Jordan Travelers - God Will Answer
TTITLE9=Inspirational Gospel Singers - The Same Thing It Took
TTITLE10=Sacred Four - Somebody Watching You
TTITLE11=Andrew Wartts and The Gospel Storytellers - Peter And John
TTITLE12=Holy Disciples Of Chicago, Ill. - I Know Him
TTITLE13=Sensational Five Singing Sons - Share Your Love (With The Master)
TTITLE14=Little Chris and The Righteous Singers - I Thank You Lord
TTITLE15=Sensational Five - Coming On Strong, Staying Long
TTITLE16=Chicago Travelers - Been Trying
TTITLE17=James Austin and The St. Luke COGIC Youth Choir - I'll Take Jesus For M
TTITLE17=ine
EXTD=
EXTT0=
EXTT1=
EXTT2=
EXTT3=
EXTT4=
EXTT5=
EXTT6=
EXTT7=
EXTT8=
EXTT9=
EXTT10=
EXTT11=
EXTT12=
EXTT13=
EXTT14=
EXTT15=
EXTT16=
EXTT17=
PLAYORDER=
